<mxfile host="app.diagrams.net" modified="2023-12-04T11:43:04.872Z" agent="Mozilla/5.0 (Macintosh; Intel Mac OS X 10_11_6) AppleWebKit/537.36 (KHTML, like Gecko) Chrome/103.0.0.0 Safari/537.36" version="21.1.2" etag="3XcXroc8AmBwNeuULsrS" type="github">
  <diagram name="Page-1" id="3UVP0aOVkyHGjKWvrfWH">
    <mxGraphModel>
      <root>
        <mxCell id="0" />
        <mxCell id="1" parent="0" />
      </root>
    </mxGraphModel>
  </diagram>
</mxfile>
